<svg width="18" height="18" viewBox="0 0 18 18" fill="none" xmlns="http://www.w3.org/2000/svg">
<path d="M13.6908 17.0431L9.87968 9.8653L6.10088 13.6144L6.45616 16.0177L5.42264 17.0431L3.67858 13.9669L0.61032 12.2686L1.64384 11.2432L4.03385 11.5636L7.81265 7.81451L0.61032 4.06541L1.96681 2.71958L10.9132 4.73832L14.692 0.989225C14.9719 0.711514 15.3057 0.572659 15.6932 0.572659C16.1239 0.572659 16.4791 0.711514 16.759 0.989225C17.039 1.26694 17.1681 1.60873 17.1466 2.01462C17.1681 2.42051 17.039 2.7623 16.759 3.04001L12.9802 6.78911L15.0473 15.6972L13.6908 17.0431Z" fill="white"/>
</svg>
